<svg xmlns="http://www.w3.org/2000/svg" version="1.1" xmlns:xlink="http://www.w3.org/1999/xlink" xmlns:svgjs="http://svgjs.dev/svgjs" width="1000" height="1000"><g clip-path="url(#SvgjsClipPath1074)"><rect width="1000" height="1000" fill="#FF6500"></rect><g transform="matrix(21.875,0,0,21.875,150.03131023049355,150.04172706604004)"><svg xmlns="http://www.w3.org/2000/svg" version="1.1" xmlns:xlink="http://www.w3.org/1999/xlink" xmlns:svgjs="http://svgjs.dev/svgjs" width="32" height="32"><svg height="32" viewBox="0 0 32 32" width="32" xmlns="http://www.w3.org/2000/svg"><path d="m29.35 4.361h-7.767c-2.672 0-4.994 1.85-5.578 4.461-.589-2.611-2.906-4.461-5.578-4.461h-7.761c-1.472 0-2.667 1.194-2.667 2.667v13.656c0 1.472 1.194 2.667 2.667 2.667h4.983c5.678 0 7.372 1.355 8.183 4.167.039.156.289.156.333 0 .817-2.811 2.511-4.167 8.183-4.167h4.983c1.472 0 2.667-1.194 2.667-2.667v-13.65c0-1.467-1.183-2.661-2.65-2.672zm-15.906 14.744c0 .106-.083.194-.194.194h-8.906c-.105 0-.194-.083-.194-.194v-1.272c0-.105.083-.194.194-.194h8.911c.105 0 .194.083.194.194v1.272zm0-3.383c0 .105-.083.194-.194.194h-8.906c-.105 0-.194-.083-.194-.194v-1.272c0-.106.083-.194.194-.194h8.911c.105 0 .194.083.194.194v1.272zm0-3.383c0 .105-.083.194-.194.194h-8.906c-.105 0-.194-.083-.194-.194v-1.272c0-.105.083-.194.194-.194h8.911c.105 0 .194.083.194.194v1.272zm14.406 6.761c0 .105-.083.194-.194.194h-8.906c-.105 0-.194-.083-.194-.194v-1.272c0-.105.083-.194.194-.194h8.911c.106 0 .194.083.194.194v1.272zm0-3.383c0 .106-.083.194-.194.194h-8.906c-.105 0-.194-.083-.194-.194v-1.272c0-.105.083-.194.194-.194h8.911c.106 0 .194.083.194.194v1.272zm0-3.384c0 .105-.083.194-.194.194h-8.906c-.105 0-.194-.083-.194-.194v-1.267c0-.105.083-.194.194-.194h8.911c.106 0 .194.083.194.194v1.267z"></path></svg></svg></g></g><defs><clipPath id="SvgjsClipPath1074"><rect width="1000" height="1000" x="0" y="0" rx="200" ry="200"></rect></clipPath></defs></svg>